<svg xmlns="http://www.w3.org/2000/svg" viewBox="0 0 200 200">
  <rect width="200" height="200" rx="42" fill="#ffffff" />
  <g fill="none" stroke="#1a8a4e" stroke-linecap="round">
    <circle cx="100" cy="100" r="82" stroke-width="9" />
    <g transform="rotate(-45 100 100)">
      <path stroke-width="10" d="M100,38 C126,48 126,60 100,70 C74,80 74,92 100,102 C126,112 126,124 100,134 C74,144 74,156 100,162" />
      <path stroke-width="10" d="M100,38 C74,48 74,60 100,70 C126,80 126,92 100,102 C74,112 74,124 100,134 C126,144 126,156 100,162" />
      <g stroke-width="6">
        <line x1="84" y1="54" x2="116" y2="54" />
        <line x1="84" y1="86" x2="116" y2="86" />
        <line x1="84" y1="118" x2="116" y2="118" />
        <line x1="84" y1="150" x2="116" y2="150" />
      </g>
    </g>
  </g>
</svg>
